<?xml version="1.0" encoding="UTF-8" standalone="no"?>
<!-- Created with Inkscape (http://www.inkscape.org/) -->

<svg
   xmlns:osb="http://www.openswatchbook.org/uri/2009/osb"
   xmlns:dc="http://purl.org/dc/elements/1.1/"
   xmlns:cc="http://creativecommons.org/ns#"
   xmlns:rdf="http://www.w3.org/1999/02/22-rdf-syntax-ns#"
   xmlns:svg="http://www.w3.org/2000/svg"
   xmlns="http://www.w3.org/2000/svg"
   xmlns:sodipodi="http://sodipodi.sourceforge.net/DTD/sodipodi-0.dtd"
   xmlns:inkscape="http://www.inkscape.org/namespaces/inkscape"
   width="100"
   height="100"
   viewBox="0 0 100 99.999995"
   id="svg2"
   version="1.1"
   inkscape:version="0.91 r13725"
   sodipodi:docname="logo_block.svg">
  <defs
     id="defs4">
    <linearGradient
       id="linearGradient5708"
       osb:paint="solid">
      <stop
         style="stop-color:#006e02;stop-opacity:1;"
         offset="0"
         id="stop5710" />
    </linearGradient>
    <linearGradient
       id="linearGradient5677"
       osb:paint="solid">
      <stop
         style="stop-color:#000000;stop-opacity:1;"
         offset="0"
         id="stop5679" />
    </linearGradient>
  </defs>
  <sodipodi:namedview
     id="base"
     pagecolor="#ffffff"
     bordercolor="#666666"
     borderopacity="1.0"
     inkscape:pageopacity="0.0"
     inkscape:pageshadow="2"
     inkscape:zoom="1"
     inkscape:cx="-272.9495"
     inkscape:cy="-111.63773"
     inkscape:document-units="px"
     inkscape:current-layer="layer1"
     showgrid="false"
     width="600mm"
     showguides="false"
     units="px"
     inkscape:window-width="1920"
     inkscape:window-height="1017"
     inkscape:window-x="-8"
     inkscape:window-y="-8"
     inkscape:window-maximized="1"
     inkscape:snap-text-baseline="true" />
  <metadata
     id="metadata7">
    <rdf:RDF>
      <cc:Work
         rdf:about="">
        <dc:format>image/svg+xml</dc:format>
        <dc:type
           rdf:resource="http://purl.org/dc/dcmitype/StillImage" />
        <dc:title />
      </cc:Work>
    </rdf:RDF>
  </metadata>
  <g
     inkscape:label="Layer 1"
     inkscape:groupmode="layer"
     id="layer1"
     transform="translate(0,-952.36229)">
    <flowRoot
       xml:space="preserve"
       id="flowRoot3348"
       style="font-style:normal;font-weight:normal;font-size:40px;line-height:125%;font-family:sans-serif;letter-spacing:0px;word-spacing:0px;fill:#000000;fill-opacity:1;stroke:none;stroke-width:1px;stroke-linecap:butt;stroke-linejoin:miter;stroke-opacity:1"><flowRegion
         id="flowRegion3350"><rect
           id="rect3352"
           width="37.142857"
           height="74.285713"
           x="97.14286"
           y="243.79077" /></flowRegion><flowPara
         id="flowPara3354" /></flowRoot>    <text
       xml:space="preserve"
       style="font-style:normal;font-weight:normal;font-size:40px;line-height:125%;font-family:sans-serif;letter-spacing:0px;word-spacing:0px;fill:#000000;fill-opacity:1;stroke:none;stroke-width:1px;stroke-linecap:butt;stroke-linejoin:miter;stroke-opacity:1"
       x="-282.85715"
       y="315.2193"
       id="text3367"
       sodipodi:linespacing="125%"><tspan
         sodipodi:role="line"
         id="tspan3369"
         x="-282.85715"
         y="315.2193" /></text>
    <text
       xml:space="preserve"
       style="font-style:normal;font-weight:normal;font-size:90px;line-height:125%;font-family:sans-serif;letter-spacing:0px;word-spacing:0px;fill:#000000;fill-opacity:1;stroke:none;stroke-width:1px;stroke-linecap:butt;stroke-linejoin:miter;stroke-opacity:1"
       x="299"
       y="247.36218"
       id="text3371"
       sodipodi:linespacing="125%"><tspan
         sodipodi:role="line"
         id="tspan3373"
         x="299"
         y="247.36218" /></text>
    <text
       xml:space="preserve"
       style="font-style:normal;font-weight:normal;font-size:40px;line-height:125%;font-family:sans-serif;letter-spacing:0px;word-spacing:0px;fill:#000000;fill-opacity:1;stroke:none;stroke-width:1px;stroke-linecap:butt;stroke-linejoin:miter;stroke-opacity:1"
       x="339.41125"
       y="206.66248"
       id="text3375"
       sodipodi:linespacing="125%"><tspan
         sodipodi:role="line"
         id="tspan3377"
         x="339.41125"
         y="206.66248" /></text>
    <text
       xml:space="preserve"
       style="font-style:normal;font-weight:normal;font-size:40px;line-height:125%;font-family:sans-serif;letter-spacing:0px;word-spacing:0px;fill:#000000;fill-opacity:1;stroke:none;stroke-width:1px;stroke-linecap:butt;stroke-linejoin:miter;stroke-opacity:1"
       x="123"
       y="735.36224"
       id="text3383"
       sodipodi:linespacing="125%"><tspan
         sodipodi:role="line"
         id="tspan3385"
         x="123"
         y="735.36224" /><tspan
         sodipodi:role="line"
         x="123"
         y="785.36224"
         id="tspan3387" /><tspan
         sodipodi:role="line"
         x="123"
         y="835.36224"
         id="tspan3389" /></text>
    <text
       xml:space="preserve"
       style="font-style:normal;font-variant:normal;font-weight:normal;font-stretch:normal;font-size:90px;line-height:125%;font-family:Papyrus;-inkscape-font-specification:'Papyrus, Normal';text-align:start;letter-spacing:0px;word-spacing:0px;writing-mode:lr-tb;text-anchor:start;fill:#000000;fill-opacity:1;stroke:none;stroke-width:1px;stroke-linecap:butt;stroke-linejoin:miter;stroke-opacity:1"
       x="98"
       y="844.36224"
       id="text3391"
       sodipodi:linespacing="125%"><tspan
         sodipodi:role="line"
         id="tspan3393"
         x="98"
         y="844.36224" /></text>
    <text
       xml:space="preserve"
       style="font-style:normal;font-weight:normal;font-size:40px;line-height:125%;font-family:sans-serif;letter-spacing:0px;word-spacing:0px;fill:#000000;fill-opacity:1;stroke:none;stroke-width:1px;stroke-linecap:butt;stroke-linejoin:miter;stroke-opacity:1"
       x="288"
       y="825.36224"
       id="text3395"
       sodipodi:linespacing="125%"><tspan
         sodipodi:role="line"
         id="tspan3397"
         x="288"
         y="825.36224" /></text>
    <text
       xml:space="preserve"
       style="font-style:normal;font-variant:normal;font-weight:normal;font-stretch:normal;font-size:60px;line-height:125%;font-family:Papyrus;-inkscape-font-specification:'Papyrus, Normal';text-align:start;letter-spacing:0px;word-spacing:0px;writing-mode:lr-tb;text-anchor:start;fill:#000000;fill-opacity:1;stroke:none;stroke-width:1px;stroke-linecap:butt;stroke-linejoin:miter;stroke-opacity:1"
       x="158"
       y="825.36224"
       id="text3399"
       sodipodi:linespacing="125%"><tspan
         sodipodi:role="line"
         id="tspan3401"
         x="0"
         y="0"><tspan
           style="font-style:normal;font-variant:normal;font-weight:normal;font-stretch:normal;font-size:60px;line-height:125%;font-family:Papyrus;-inkscape-font-specification:'Papyrus, Normal';text-align:start;writing-mode:lr-tb;text-anchor:start"
           id="tspan3403" /></tspan></text>
    <text
       xml:space="preserve"
       style="font-style:normal;font-variant:normal;font-weight:normal;font-stretch:normal;font-size:90px;line-height:125%;font-family:Papyrus;-inkscape-font-specification:'Papyrus, Normal';text-align:start;letter-spacing:0px;word-spacing:0px;writing-mode:lr-tb;text-anchor:start;fill:#000000;fill-opacity:1;stroke:none;stroke-width:1px;stroke-linecap:butt;stroke-linejoin:miter;stroke-opacity:1"
       x="264"
       y="808.36224"
       id="text3405"
       sodipodi:linespacing="125%"><tspan
         sodipodi:role="line"
         id="tspan3407"
         x="264"
         y="808.36224" /></text>
    <flowRoot
       xml:space="preserve"
       id="flowRoot3419"
       style="font-style:normal;font-weight:normal;font-size:40px;line-height:125%;font-family:sans-serif;letter-spacing:0px;word-spacing:0px;fill:#000000;fill-opacity:1;stroke:none;stroke-width:1px;stroke-linecap:butt;stroke-linejoin:miter;stroke-opacity:1"><flowRegion
         id="flowRegion3421"><rect
           id="rect3423"
           width="244"
           height="110"
           x="81"
           y="215" /></flowRegion><flowPara
         id="flowPara3425" /></flowRoot>    <text
       xml:space="preserve"
       style="font-style:normal;font-weight:normal;font-size:40px;line-height:125%;font-family:sans-serif;letter-spacing:0px;word-spacing:0px;fill:#000000;fill-opacity:1;stroke:none;stroke-width:1px;stroke-linecap:butt;stroke-linejoin:miter;stroke-opacity:1"
       x="-273"
       y="600.36224"
       id="text4182"
       sodipodi:linespacing="125%"><tspan
         sodipodi:role="line"
         id="tspan4184"
         x="-273"
         y="600.36224" /></text>
    <g
       transform="scale(0.76853092,1.3011838)"
       style="font-style:normal;font-weight:normal;font-size:51.27702713px;line-height:125%;font-family:sans-serif;letter-spacing:0px;word-spacing:0px;fill:#ffffff;fill-opacity:1;stroke:none;stroke-width:1px;stroke-linecap:butt;stroke-linejoin:miter;stroke-opacity:1"
       id="text4178" />
    <g
       id="g4200">
      <path
         id="rect4176"
         d="m 1,953.36121 100,0 0,99.99999 -100,0 z"
         style="fill:#000000;fill-opacity:1;stroke:none;stroke-opacity:1" />
      <g
         id="text4190"
         style="font-style:normal;font-weight:normal;font-size:24.71802521px;line-height:125%;font-family:sans-serif;letter-spacing:0px;word-spacing:0px;fill:#000000;fill-opacity:1;stroke:none;stroke-width:1px;stroke-linecap:butt;stroke-linejoin:miter;stroke-opacity:1"
         transform="scale(0.80602591,1.2406549)">
        <path
           d="m 14.897944,781.63716 q 0.6789,-0.21725 2.769915,-1.43927 0.678901,-0.38019 1.765142,-0.38019 1.086242,0 2.416887,0.86899 l 1.059086,0.13579 q 1.43927,0.21724 2.389731,0.29871 l 3.258724,0.24441 1.167709,0.13578 0.02716,0 q 0.135781,0 0.570277,-0.0272 1.520738,-0.16294 2.253951,-0.16294 0.380185,0 1.16771,0.0543 l 3.801844,0.21724 q 0.108625,0.0272 1.086242,-0.29871 0.190092,-0.0815 0.353028,-0.0815 0.05431,0 0.733213,0.19009 1.222022,0.0815 1.629362,0.21725 0.271561,0.0815 1.086242,0.38018 1.086241,-0.62458 1.737986,-0.62458 0.190092,0 1.98239,0.35302 l 0.868993,-0.16293 q 0.868994,0.19009 0.977618,0.19009 l 0.760369,-0.0272 1.928078,0.0272 1.466426,-0.0815 0.515965,0.0272 q 0.923305,0.0272 1.004773,0.0543 l 1.194865,0.38018 q 0,0 0.135781,-0.0815 l 0.353028,-0.73322 q 0.868993,0.10863 1.249178,0.10863 l 1.792298,-0.32587 0.05431,0 q 0.08147,0.13578 0.597433,1.30349 l 0.46165,-0.7874 q 0.02716,-0.0815 1.004774,-0.0815 0.05431,0 1.466425,-0.70605 0.108625,-0.0543 0.190093,-0.0543 0.244404,0 0.325872,0.1901 l 0.597433,1.30348 1.412114,-1.52073 0.597432,-0.13578 0.678901,-0.27156 0,0 q 0.461653,0.0543 0.651745,0.48881 l -0.570277,0.4888 -0.108624,0.46166 q -0.570277,0.2444 -0.678901,0.38018 l -0.651744,0.86899 q -0.108625,0.13578 -0.706057,0.4345 -0.624589,0.29872 -1.249178,0.29872 -0.217248,0 -0.570277,-0.0543 -0.923305,-0.19009 -1.140553,-0.19009 -0.244404,0 -0.515965,0.0272 -0.733213,0.10862 -0.868993,0.10862 -0.325872,0 -1.140553,-0.19009 -0.706057,-0.13578 -1.276334,-0.13578 -0.108624,0 -2.063859,0.2444 -0.488808,0.0543 -0.923305,0.0543 -0.13578,0 -3.01432,-0.16294 l -1.059085,0.16294 -1.737986,-1.00478 -0.787525,1.00478 -0.543121,-0.1901 -0.733213,-0.0543 -1.276333,-0.10862 q 0,0 -0.325873,0.10862 -0.353028,0.10863 -0.678901,0.10863 l -0.02716,0 q -0.190092,0 -1.765142,-0.13578 -0.353028,-0.0272 -0.651745,-0.0272 -0.434496,0 -0.760369,0.19009 0.162936,0.21725 0.162936,0.24441 0,0.19009 -0.977617,1.00477 -0.13578,0.10862 -0.841837,1.33065 -0.108624,0.19009 -0.706057,0.9233 -0.461652,0.57028 -0.461652,0.76037 0,0.76037 1.683674,1.3578 0.814681,0.29872 0.814681,0.51597 0,0.0272 -0.325873,0.54312 -0.162936,0.2444 -0.244404,0.76037 l -0.461652,0 0.05431,0.86899 0.651744,0.35303 q 0.271561,0.51596 0.271561,0.76037 0,0.27156 -0.108624,1.03193 -0.05431,0.38018 -0.05431,0.81468 0,0.46165 0.190092,2.57982 l 0.08147,1.3578 q 0.02716,0.84184 0.08147,1.41212 0.05431,0.70605 0.05431,0.78752 0,0.54312 -0.325872,0.6789 -0.02716,0.0272 -0.380185,0.13578 -0.217248,0.0543 -0.54312,0.32587 l 0,0.16294 -0.08147,0.0815 0.624589,0.51596 0,0.89615 0.760369,0.35303 q -2.362575,1.24918 -2.362575,2.4712 0,1.14055 2.281107,1.98239 -0.353028,0.38018 -0.353028,0.65175 0,0.2444 0.108624,1.19486 0.02716,0.27156 0.02716,0.57028 0,0.19009 -0.02716,0.57027 l 0.298716,0.13578 q -0.190092,1.14056 -0.190092,1.57505 l 0,0.0272 0.08147,1.05909 q 0.05431,1.43927 0.08147,1.65651 0.02716,0.13578 0.27156,0.89615 -0.40734,1.00478 -0.40734,1.30349 0,0.21725 0.02716,0.57028 l -0.08147,0.0815 q -0.977617,0.13578 -0.977617,0.65174 l 0,0.0272 0.162936,0.59743 0.896149,-0.2444 q 0.02716,0.54312 0.108624,0.73321 0.162936,0.51596 0.162936,0.57028 0,0.0272 -0.108624,0.4888 -0.02716,0.16294 -0.02716,0.35303 0,0.21725 0.13578,2.30827 0.02716,0.35302 -0.27156,2.49835 -0.05431,0.46165 -0.05431,0.86899 0,0.24441 0.353028,1.52074 -0.162936,1.00478 -0.27156,1.1134 -0.162936,0.10862 -0.950461,0.32587 -0.515965,0.16294 -0.733213,0.35303 l -0.407341,0.4345 q -0.651744,0 -0.733213,0.0543 -1.57505,0.97762 -2.063858,1.19486 -0.461653,-0.54312 -0.461653,-0.89614 0,-0.10863 0.244405,-0.97762 l -0.02716,-0.78753 0.190093,-0.76037 0.108624,-1.43927 0.108624,-0.81468 q 0,-0.97761 0.108624,-1.24917 0.162936,-0.38019 0.814681,-0.92331 -0.543121,-0.57028 -0.543121,-0.95046 l 0,-0.0272 0.08147,-1.19486 0,-1.41212 q 0.08147,-1.05908 0.08147,-1.65651 l 0.40734,-0.48881 q -0.02716,-0.29872 -0.02716,-0.4345 0,-0.2444 0.08147,-0.76037 l -0.434496,-0.40734 -0.108624,0 0.162936,-0.57028 0,-4.42643 q -0.02716,-0.21725 0.108624,-0.9233 0.13578,-0.70606 0.13578,-1.16771 0,-0.16294 -0.162936,-1.03193 l -0.13578,-1.24918 q -0.05431,-0.51596 -0.05431,-0.59743 0,-0.0543 0.353028,-1.08624 0.02716,-0.62459 0.08147,-0.70606 0.08147,-0.21725 0.733213,-0.32587 l 0,-0.48881 -0.868993,0.19009 q -0.190092,-0.6789 -0.190092,-0.89615 0,-0.2444 0.13578,-0.84184 0.05431,-0.2444 0.13578,-0.76037 -0.380184,-0.13578 -0.624589,-0.27156 l 0.08147,-0.65174 0,-5.21396 q 0,-0.46165 1.03193,-0.9233 1.031929,-0.48881 1.031929,-0.73322 0,-0.13578 -1.059085,-0.73321 -0.461653,-0.2444 -1.086242,-0.81468 0.624589,-0.29872 0.624589,-0.57028 0,-0.0272 -0.298716,-1.00477 -0.02716,-0.0815 -0.02716,-0.21725 0,-0.29872 0.05431,-0.6789 -0.733213,-0.81468 -0.733213,-1.95523 0,-0.27157 0.40734,-0.89615 -0.217248,-0.70606 -0.298716,-0.92331 -0.05431,-0.13578 -0.05431,-0.13578 0.02716,-0.73321 2.416887,-1.7923 0.244404,-0.10862 0.244404,-0.21725 0,-0.0815 -2.525511,-0.62458 -0.298716,-0.0543 -0.298716,-0.38019 0,-0.10862 0.108624,-0.32587 -0.868993,-0.38019 -2.634135,-0.4345 -0.543121,0 -1.602207,-0.0815 -0.05431,0 -0.08147,0 -0.108624,0 -1.303489,0.1901 l -2.091015,-0.16294 q -0.108624,0 -0.570277,0.19009 -0.434496,-0.32587 -0.787525,-0.32587 l -0.05431,0 q -0.597432,0 -0.624589,0 l -1.439269,-0.48881 -0.434497,0.19009 -0.515965,0.21725 -0.923305,0.4345 q -1.140553,-0.24441 -1.276333,-0.24441 -0.244405,0 -1.43927,0.16294 l -1.30349,0 -0.977617,0.0272 q -0.244404,0 -1.412114,-0.27156 -0.08147,-0.0272 -0.325872,-0.0272 -0.461653,0 -1.602206,0.13578 -0.02716,-0.0543 -0.05431,-0.13578 -0.05431,-0.0543 -0.05431,-0.0815 0,-0.19009 0.380184,-0.57028 0.217248,-0.19009 0.461653,-0.62458 z m 53.942069,5.06512 q 0.409575,0 1.060075,-0.76853 0.602316,0 0.722779,0 0.433668,0.0265 0.530038,0.0265 l 1.301002,-0.053 q 0.144555,0 1.180538,0.50351 0.04819,0.0265 0.120463,0.0265 0.07228,0 0.481852,-0.23851 l 0.26502,0 4.505321,-0.159 q 0.19274,-0.0265 0.578222,0.26501 0.192741,0.159 0.650501,0.318 l 0.409574,-0.4505 q 1.325095,0 2.722467,0.212 l 0.07227,-0.0795 q 0.409575,0.60951 0.770964,0.60951 0.337297,0 0.650501,-0.63601 0.674594,0.053 1.180539,0.053 l 3.372967,0.47702 1.060075,0.0265 q 0.795057,0.212 1.397372,0.265 0.09637,0.53002 0.289112,0.58301 0.09637,0.0795 0.963705,0.15901 0.265019,-0.58301 0.55413,-0.58301 0.04819,0 0.481853,0.159 l 0.819149,0.0265 q 0.240927,0 0.819148,0.39751 0.770967,0.53002 0.987798,0.53002 l 0.505946,-0.159 2.216521,1.03353 q 2.168341,0.50351 2.433351,0.71552 0.31321,0.26501 0.36139,0.26501 l 0.48186,0.0795 q 0.55413,0.45052 0.81915,0.63603 l 1.01189,0.87452 1.08416,0.74203 q 0.91553,0.76852 1.46965,1.06003 -0.14455,0.58302 -0.14455,0.82152 0,0.68903 0.40957,0.68903 0.3373,0 0.74687,-0.18551 0.45776,0.60952 1.27692,1.45754 0.55412,0.60952 0.50594,0.76853 l 0.16864,0.79502 0.60232,1.82855 0.0481,1.21904 0.40958,1.64305 0.0723,2.01407 0.16865,0.84802 -0.12046,2.01407 q -0.0481,1.53704 -0.21684,2.35857 -0.14455,0.68902 -0.55413,1.90806 l -0.43367,0 q -0.0241,0.106 -0.0241,0.18551 0,0.053 0.26501,0.58302 0.0241,0.0795 0.0241,0.212 0,0.37101 -0.16864,0.84803 -0.19275,0.53002 -0.21684,0.63602 -0.36139,1.24554 -0.69868,1.24554 -0.28912,0 -0.60232,-0.82153 l -0.53004,0.95403 0.16865,0.31802 -0.12046,0.53001 0.43366,0.68902 q -0.38548,0.55652 -1.03597,2.09356 l -0.60233,0.84803 -0.0964,0.31802 -1.08416,1.24554 -0.16865,0.47701 -0.69869,0.90102 q -0.38548,0.50352 -0.50594,0.50352 -0.12046,0 -0.3373,-0.23851 l -0.36138,0 -0.31321,-0.45051 q -0.43367,0.53002 -0.43367,0.82153 0,0.2385 0.3373,0.68902 -0.57822,0.60951 -1.46965,1.24553 -0.50595,0.37102 -0.79506,0.76853 -0.74687,-0.34452 -1.541925,-0.45052 l -0.09637,0.31802 q 0.3132,0.47701 0.409568,0.79502 -0.457757,0.50351 -1.638291,1.40455 l -1.638301,0.92752 q -0.192746,0.106 -0.795061,0.74202 -0.554127,-0.55652 -1.011887,-0.58301 -0.168649,0.84802 -0.433667,1.08653 -0.120464,0.0795 -1.493744,0.47701 -0.144555,0.0265 -0.361388,0.21202 -0.891427,0.82152 -0.939612,0.82152 l -0.530039,0 q -0.09637,0 -0.674593,0.47701 -0.120463,0.106 -1.060075,0.45052 -0.168649,0.0795 -0.433668,0.212 -1.421464,0.74203 -2.023781,0.84803 -0.6505,0.053 -1.590112,0.37101 l -2.312892,0.87453 -1.590113,0.15901 -0.602316,0.212 -0.409575,0.053 -0.891426,0.13251 -0.530039,0 -1.01189,0.265 -1.373279,0.053 -1.903318,0.159 -0.433667,-0.0265 q -0.626408,-0.0265 -0.963705,-0.0795 l -3.662079,0.15901 q -0.02409,0 -0.216833,0.0795 -0.07227,0.0265 -0.144555,0.0265 -0.626409,0 -0.626409,-0.66252 0,-0.21201 0.144556,-0.31801 0.168648,-0.106 1.10826,-0.50351 0.987798,-0.39752 1.397373,-0.71553 0.09637,-0.71552 0.481852,-1.27203 -0.07227,-0.84803 -0.07227,-1.24554 l 0.313204,-2.01406 0,-0.0265 q 0,-0.29151 -0.07227,-0.63602 -0.09637,-0.37101 -0.09637,-0.37101 0,-0.0795 0.337297,-1.66956 0.04819,-0.2385 0.04819,-0.4505 0,-0.26501 -0.289111,-0.98054 l 1.975595,-0.60952 -1.903318,-3.3656 q 0,0 0.04819,-0.106 0.91552,-0.21202 0.91552,-0.68903 0,-0.29151 -0.337297,-0.82152 -0.216834,0.106 -0.409575,0.106 -0.361389,0 -0.361389,-0.87452 l 0.04819,-0.66252 0,-3.57762 q 0,-0.37101 -0.04819,-0.63601 -0.0241,-0.26502 -0.0241,-0.31802 0,-0.42401 0.409575,-1.13954 l -0.409575,-0.318 0,-0.76853 0.385482,-0.42401 q -0.457759,-0.50352 -0.457759,-1.19254 l 0,-0.106 0,-0.58302 q 0,-1.56355 -0.07227,-2.22606 -0.0241,-0.37102 -0.0241,-0.60953 0,-0.2385 0.144556,-0.58302 0.289111,0.053 0.505945,0.053 0.313204,0 0.313204,-0.29151 0,-0.0795 -0.289112,-0.39751 -0.216833,-0.34451 -0.433667,-0.53001 -0.602315,-0.053 -0.650501,-0.60953 l 0,0 0.168648,-1.45754 -0.19274,-5.24716 0.168648,-0.18551 0.192741,0 q 0.265019,-0.84803 0.265019,-1.13954 0,-0.37101 -0.698686,-0.74202 -0.04819,-0.58302 -0.45776,-2.38508 l -0.04819,-0.95403 q -0.192741,-0.71551 -0.192741,-1.43104 -0.0241,-0.71552 -0.265019,-2.54407 -0.530038,0 -0.674594,-0.0265 -0.144555,-0.0265 -0.144555,-0.0265 -0.120463,0 -0.530038,0.15901 -0.265019,0.1325 -0.987797,0.1325 -0.144556,-0.34452 -0.144556,-0.58302 0,-0.58302 0.650501,-0.90102 0.409575,-0.18551 0.55413,-0.39752 z m 5.131729,5.96268 0.578223,0 q 0.19274,0.53002 0.313204,1.72255 l 0.120463,0.58302 -0.04819,1.69605 0.07227,0.98053 q -0.36139,0.87453 -0.36139,0.98054 0,0.106 0.192742,0.84802 l -0.09637,1.93457 0.02409,0.55651 0.0241,0.87453 q 0.168648,0.84803 0.168648,1.00703 0,0.212 -0.120463,0.47701 l -0.626409,-0.212 q -0.144556,0.318 -0.144556,0.50351 0,0.47701 0.36139,0.58302 0.04819,0.0265 0.265018,0.053 0.216834,0.0265 0.578224,0.159 -0.505945,0.55652 -0.770964,0.76852 -1.156447,0.95403 -1.156447,1.53706 0,0.0795 1.951504,3.3656 -0.216834,1.13954 -0.240927,2.04056 l -0.578223,0.29151 0.120463,0.26501 0.602315,0.23852 0.04819,0.265 0,3.78962 q 0,3.52461 0.120463,3.76311 0.0241,0.18551 0.0241,0.29151 0,0.053 -0.120463,0.87454 -0.0241,0.265 -0.0241,0.4505 0,0.47702 0.265019,2.17307 0.02409,0.15901 0.02409,0.31801 0,0.23851 -0.168648,0.55652 l -0.987797,-0.34451 q -0.26502,0.42401 -0.26502,0.68902 0,0.87453 0.891428,0.87453 0.120462,0 0.265019,0 0.02409,0.58302 0.144555,1.16603 0.09637,0.47702 0.09637,1.74905 0,0.39753 0.192741,1.96107 -0.722779,0.55652 -0.987798,1.27204 l -0.698686,0.31801 0,0.159 0.07227,0.106 q 0.240927,-0.106 0.289112,-0.106 l 1.301002,0.053 q 0.819148,0 0.915519,0.0265 0.09637,0.0265 0.457759,0.26501 l 0.337297,-0.53002 q 0.337297,0.053 0.45776,0.053 l 2.409262,-0.0795 q 0.04819,0 0.409575,0.1855 0.240927,-0.53002 0.45776,-0.66252 0.337297,-0.15901 1.01189,-0.15901 l 0.240927,0 q 1.349187,0 1.710576,-0.15899 l 0.650501,-0.31802 0.963705,-0.31801 q 2.120151,-0.95403 2.602004,-1.27203 l 0.770963,-0.23852 q 1.301002,-0.60951 1.445557,-0.66252 0.09637,0 0.554131,-0.0265 l 1.276909,-0.76852 q 0.867334,-0.21201 0.939612,-0.31802 0.02409,-0.0795 0.04819,-0.318 0.481853,-0.23851 0.650501,-0.31801 0.843242,-0.37101 2.168335,-1.35154 0.746872,-0.39752 1.011892,-0.58303 0.168652,-0.1325 2.385172,-2.17306 l 1.349189,-1.16603 0.69868,-1.13954 1.18054,-1.21904 q 0.16865,-0.15901 0.43367,-0.71553 0.16865,-0.39751 1.59011,-2.27907 0.0241,-0.0265 0.24092,-0.66251 0.0964,-0.23851 0.50595,-1.11304 0.28911,-0.63602 0.31321,-1.45754 0.0241,-0.47702 0.53003,-1.72255 0.48185,-1.24554 0.40958,-1.53706 l 0.0241,-1.21903 0.21683,-1.43105 q 0.0723,-0.87452 0.16865,-1.27204 0.89143,-0.21201 0.89143,-1.45755 0,-0.74202 -0.89143,-1.19253 -0.0481,-0.68903 -0.28911,-1.88156 l -0.0482,-0.76852 q -0.28911,-0.95403 -0.28911,-1.11304 0,-0.34451 0.0964,-0.87453 -0.48185,-0.47701 -0.93961,-1.32504 -0.69869,-1.35154 -0.74687,-1.48404 -0.0241,-0.0265 -0.0964,-0.74203 l -0.26501,-0.2915 q -0.38548,0 -0.55413,-0.053 -0.24093,-0.0265 -0.86734,-0.60953 0.14456,-0.424 0.14456,-0.71551 0,-0.18551 -0.21683,-0.50353 -0.36139,-0.053 -0.6505,-0.053 -0.0723,0 -0.65051,0.106 -0.0241,0 -0.0481,0 -0.14456,0 -1.46966,-1.19253 l -1.108257,-0.71553 -0.722777,-0.63602 -0.746872,-0.39751 -1.710575,-0.98053 -0.722777,-0.2385 -0.626409,-0.23852 -1.228723,-0.1855 -0.91552,-0.29151 -1.951502,-0.34452 -1.469651,-0.3445 q -1.92741,-0.37101 -2.047872,-0.45052 -0.07227,-0.053 -0.481853,-0.45051 -0.240927,-0.23851 -0.361389,-0.23851 -0.216834,0 -0.578223,0.21201 -0.26502,0.15901 -0.45776,0.15901 -0.0241,0 -0.81915,-0.13251 l -0.987797,-0.0265 -2.553818,-0.18551 -2.071966,0.0795 -1.132353,0 -0.240926,0 -0.144556,0 q -0.313204,0 -0.578223,-0.13251 -0.650501,-0.29151 -0.722779,-0.29151 -0.02409,0 -0.385482,0.159 -0.192741,0.0795 -0.602315,0.13251 -0.216834,0.42401 -0.216834,0.55651 l 0.07228,0.95403 -0.192741,0.76853 q -0.09637,0.92753 -0.265019,1.48405 l -0.433667,-0.15901 q -0.216834,0.39751 -0.216834,0.63602 0,0.159 0.09637,0.26501 l 0.168649,0.21201 z m -25.602428,18.1089 q -0.04819,-0.35335 -0.112433,-0.74202 0,0.159 0.04819,-0.24735 0.04819,-0.40634 0.128494,-1.3957 0.128494,-0.19434 0.17668,-0.33569 0.06424,-0.15899 0.112432,-0.28267 -0.144555,-0.19434 -0.224864,-0.31801 -0.06425,-0.14133 -0.06425,-0.22967 0.128494,-1.07771 0.240927,-2.0494 0.01607,-0.26501 0.273049,-0.60068 0.27305,-0.33569 0.738841,-0.72436 0.369421,-0.33568 0.722779,-0.56536 0.353359,-0.22967 0.674593,-0.37101 0.433667,-0.159 0.513976,-0.265 0.08031,-0.106 0.17668,-0.106 0.256988,0 0.385482,0.28266 0.144555,0.28268 0.144555,0.84803 0,0.30035 -0.144555,0.83036 -0.128494,0.53003 -0.128494,0.77736 0,0.106 0.01607,0.8127 0.03212,0.70668 0.08031,2.03173 0.01607,0.95403 0.240926,2.03172 0.240926,1.07771 0.610347,2.24374 0.497914,1.51939 1.076136,2.27908 0.578223,0.74201 1.268878,0.74201 0.5461,0 1.445558,-0.77735 0.899458,-0.77736 2.120151,-2.33207 0.931581,-1.20138 1.65436,-2.24374 0.738841,-1.04237 1.18857,-1.90806 0.417606,-0.77736 0.979766,-1.39571 0.562161,-0.61836 1.28494,-1.1307 0.224865,-0.14134 0.36942,-0.22967 0.144557,-0.0883 0.224865,-0.0883 0.289111,0 0.433667,0.47702 0.160618,0.47701 0.160618,1.41338 -0.09637,0.86569 -0.160618,1.71371 -0.144556,1.32504 -0.433667,2.75608 -0.27305,1.43105 -0.722779,2.9681 -0.224864,0.77736 -0.385482,1.36038 -0.160618,0.58302 -0.224864,0.98936 -0.03212,0.22967 -0.09637,0.58302 -0.04819,0.33568 -0.112433,0.79502 -0.160617,0.44168 -0.353358,0.88337 -0.160618,0.35333 -0.27305,0.84802 -0.09637,0.49469 -0.176679,1.14837 0,0.12367 -0.01607,0.31801 -0.01606,0.19434 -0.03212,0.40634 -0.369421,1.80206 -0.754903,3.49812 -0.03212,0.15899 -0.144555,0.40634 -0.208803,0.0707 -0.481853,0.30034 -0.256988,0.22968 -0.546099,0.63602 -0.289112,0.35335 -0.481852,0.53002 -0.192742,0.159 -0.289112,0.159 -0.128494,0 -0.208803,-0.0883 -0.08031,-0.0883 -0.08031,-0.30034 0.01607,-0.14134 0.04819,-0.22967 0.224865,-0.6007 0.385482,-1.73139 0.176679,-1.1307 0.321236,-2.79143 0.01607,-0.35334 0.256987,-1.90806 0.240927,-1.55471 0.706718,-4.3108 0.06424,-0.44167 0.160617,-1.0777 0.112432,-0.65368 0.27305,-1.48405 0.112432,-0.424 0.176679,-0.72435 0.08031,-0.318 0.08031,-0.45935 0,-0.17667 -0.06425,-0.24734 -0.04819,-0.0883 -0.160617,-0.0883 -0.09637,0 -0.353359,0.28268 -0.256988,0.265 -0.64247,0.81269 -0.224864,0.30034 -0.46579,0.63602 -0.224865,0.33567 -0.481853,0.65369 -0.433667,0.49468 -0.803088,0.93635 l -1.188569,1.30738 q -0.160618,0.106 -0.401543,0.26501 -0.224865,0.15901 -0.5461,0.37101 -0.305174,0.53001 -0.979767,0.91869 -0.658531,0.37101 -1.220693,0.37101 -0.674593,0 -1.301002,-0.45935 -0.610346,-0.47701 -1.188569,-1.44871 -0.256988,-0.47701 -0.513976,-0.95403 -0.240926,-0.47701 -0.530038,-0.95403 l -0.08031,0.0177 q -0.08031,0.106 -0.305174,1.43104 -0.208802,1.32505 -0.546099,3.88679 -0.36942,2.63242 -0.562161,4.13413 -0.19274,1.50171 -0.19274,1.94339 -0.03212,0.60068 -0.208803,0.93637 -0.160618,0.318 -0.513977,0.37101 -0.176679,0.0176 -0.497913,0.106 -0.321236,0.0707 -0.770965,0.19434 -0.08031,-0.0176 -0.144555,-0.053 -0.06425,-0.053 -0.06425,-0.14133 l 0.09637,-0.65369 -0.160617,-0.67135 q 0.09637,-0.54769 0.19274,-1.06003 0.06425,-1.06004 0.112433,-1.9964 0.01606,-0.19434 0.112432,-0.65369 0.112432,-0.45935 0.112432,-0.68902 0,-0.12367 -0.04819,-0.35335 -0.04819,-0.24733 -0.04819,-0.371 0,-0.9717 0.27305,-2.87976 0.289111,-1.90806 0.289111,-2.89742 -0.04819,-0.40635 -0.112432,-0.81269 0.08031,-0.63602 0.256988,-1.59005 0.176679,-0.95403 0.401544,-2.22607 z"
           style="font-style:normal;font-variant:normal;font-weight:normal;font-stretch:normal;font-size:55.61555862px;line-height:125%;font-family:Papyrus;-inkscape-font-specification:'Papyrus, Normal';text-align:start;writing-mode:lr-tb;text-anchor:start;fill:#ffffff;fill-opacity:1"
           id="path4190" />
      </g>
    </g>
  </g>
</svg>
